<svg xmlns="http://www.w3.org/2000/svg" version="1.1" xmlns:xlink="http://www.w3.org/1999/xlink" xmlns:svgjs="http://svgjs.dev/svgjs" width="2000" height="404" viewBox="0 0 2000 404"><g transform="matrix(1,0,0,1,-1.2121212121212466,0.2271037975759782)"><svg viewBox="0 0 396 80" data-background-color="#d8e6e6" preserveAspectRatio="xMidYMid meet" height="404" width="2000" xmlns="http://www.w3.org/2000/svg" xmlns:xlink="http://www.w3.org/1999/xlink"><g id="tight-bounds" transform="matrix(1,0,0,1,0.2400000000000091,-0.04490031860819954)"><svg viewBox="0 0 395.52 80.08987136763312" height="80.08987136763312" width="395.52"><g><svg viewBox="0 0 395.52 80.08987136763312" height="80.08987136763312" width="395.52"><g><svg viewBox="0 0 395.52 80.08987136763312" height="80.08987136763312" width="395.52"><g><svg viewBox="0 0 395.52 27.333760119973938" height="27.333760119973938" width="395.52"><g><svg viewBox="0 0 395.52 27.333760119973938" height="27.333760119973938" width="395.52"><g><svg viewBox="0 0 395.52 27.333760119973938" height="27.333760119973938" width="395.52"><g transform="matrix(1,0,0,1,0,0)"><svg width="395.52" viewBox="-0.20932000000000173 -49.09385 838.7905800000001 57.96748000000001" height="27.333760119973938" data-palette-color="#5ab3db"><path d="M43.989 6.364l-37.166 2.51-0.418-6.196-6.196 0.418-0.418-6.196 6.196-0.418-0.419-6.196 24.784-1.674-0.419-6.195-24.783 1.673-0.419-6.196 30.98-2.092 0.418 6.196 6.186-0.418zM12.182-3.937l0.419 6.196 18.588-1.255-0.419-6.196zM62.511 5.243l-12.398 0.733-1.833-30.996 37.195-2.199 0.366 6.199 6.19-0.366 1.466 24.797-12.389 0.732-1.466-24.796-18.597 1.099zM143.028 0.872l-37.202 1.888-0.315-6.202-6.202 0.314-0.944-18.606 6.202-0.314-0.315-6.202 24.808-1.259-0.628-12.394 12.394-0.629zM110.769-22.363l0.944 18.606 18.606-0.944-0.944-18.606zM166.445-31.233l0.266 6.204 6.204-0.266 0.266 6.204-6.204 0.266 0.798 18.613-12.408 0.532-1.331-31.021zM172.649-31.499l18.603-0.798 0.266 6.204-18.603 0.798zM235.949-2.752l-31.032 1.054-0.211-6.206-6.207 0.211-0.632-18.619 6.206-0.211-0.211-6.207 31.032-1.054 0.211 6.206 6.196-0.211 0.422 12.413-31.022 1.055 0.211 6.206 24.826-0.844zM210.279-26.734l0.211 6.206 18.62-0.633-0.211-6.206zM259.9-34.504l0.636 24.832 6.208-0.159 0.159 6.208-12.416 0.318-0.159-6.208-6.208 0.159-0.636-24.832zM266.107-34.663l6.208-0.159 0.637 24.832-6.208 0.159zM278.523-34.981l12.406-0.317 0.636 24.831-6.198 0.159 0.159 6.208-12.415 0.318-0.159-6.208 6.207-0.159zM365.79-36.444l0.059 6.21 6.21-0.058 0.058 6.209-6.21 0.059 0.175 18.629-12.419 0.117-0.292-31.049zM372-36.502l18.619-0.175 0.059 6.209-18.619 0.175zM440.503-5.658l-37.25 0.02-0.003-6.21-6.21 0.003-0.013-24.84 12.42-0.006 0.013 24.84 18.63-0.01-0.013-24.84 12.41-0.007zM483.898-5.343l-31.049-0.244 0.048-6.209-6.209-0.049 0.292-37.249 12.419 0.098-0.097 12.409 24.839 0.195-0.048 6.21 6.199 0.048-0.146 18.63-6.199-0.049zM459.253-30.377l-0.146 18.629 18.63 0.146 0.146-18.629zM527.869-41.979l-12.419-0.195 0.097-6.209 12.419 0.195zM539.693-4.539l-37.245-0.584 0.097-6.21 12.418 0.195 0.292-18.628-6.209-0.097 0.098-6.209 18.627 0.292-0.389 24.837 12.408 0.194zM558.239-4.087l-12.416-0.305 0.762-31.04 37.249 0.915-0.152 6.208 6.198 0.152-0.61 24.833-12.407-0.305 0.61-24.832-18.624-0.458zM632.643-1.921l-37.24-1.227 0.205-6.206 31.033 1.022 0.204-6.207-24.826-0.818 0.204-6.206-6.206-0.205 0.204-6.206 6.207 0.204 0.204-6.206 31.033 1.022-0.204 6.206-24.827-0.817-0.204 6.206 24.826 0.818-0.204 6.207 6.197 0.204-0.205 6.206-6.197-0.204zM676.001-0.224l-12.41-0.506 1.012-24.819-12.409-0.506 0.253-6.205 12.409 0.506 0.506-12.4 12.41 0.506-0.506 12.4 12.4 0.506-0.253 6.205-12.4-0.506zM731.738 2.433l-31.011-1.541 0.308-6.203-6.202-0.308 0.924-18.607 6.203 0.308 0.308-6.202 31.012 1.541-0.309 6.202 6.193 0.308-0.617 12.405-31.001-1.541-0.309 6.203 24.81 1.232zM708.162-23.609l-0.308 6.202 18.607 0.925 0.308-6.203zM777.202-32.333l-12.399-0.714 0.356-6.2 12.4 0.714zM787.451 5.568l-37.188-2.14 0.357-6.2 12.399 0.714 1.071-18.6-6.2-0.356 0.357-6.2 18.599 1.07-1.427 24.799 12.389 0.713zM805.962 6.796l-12.393-0.824 2.06-30.982 37.178 2.472-0.412 6.196 6.186 0.411-1.647 24.786-12.383-0.824 1.648-24.785-18.589-1.236z" opacity="1" transform="matrix(1,0,0,1,0,0)" fill="#5ab3db" class="undefined-text-0" data-fill-palette-color="primary" id="text-0"></path></svg></g></svg></g></svg></g></svg></g><g transform="matrix(1,0,0,1,156.9826399128657,35.86384749351528)"><svg viewBox="0 0 81.55472017426858 44.226023874117836" height="44.226023874117836" width="81.55472017426858"><g><svg xmlns="http://www.w3.org/2000/svg" data-name="Layer 1" viewBox="13.2 29.5 72.6 39.370000000000005" x="0" y="0" height="44.226023874117836" width="81.55472017426858" class="icon-icon-0" data-fill-palette-color="accent" id="icon-0"><polygon points="39.6 68.87 42.82 68.87 59.4 29.5 56.18 29.5 39.6 68.87" fill="#8bc8e6" data-fill-palette-color="accent"></polygon><polygon points="66 29.5 66 34.14 81.13 49.17 66 64.21 66 68.84 85.8 49.17 66 29.5" fill="#8bc8e6" data-fill-palette-color="accent"></polygon><polygon points="33 68.84 33 64.21 17.87 49.17 33 34.14 33 29.5 13.2 49.17 33 68.84" fill="#8bc8e6" data-fill-palette-color="accent"></polygon></svg></g></svg></g><g></g></svg></g></svg></g><defs></defs></svg><rect width="395.52" height="80.08987136763312" fill="none" stroke="none" visibility="hidden"></rect></g></svg></g></svg>